<svg width="32" height="32" viewBox="0 0 32 32" fill="none" xmlns="http://www.w3.org/2000/svg">
<path d="M31 27.6341C31 29.583 29.3599 31.115 27.465 30.9931C27.4648 30.9931 27.4646 30.9931 27.4644 30.9931L4.10934 29.4345C4.10901 29.4345 4.10869 29.4345 4.10836 29.4344C2.34027 29.3121 0.984601 27.8256 1.00013 26.0423L2.59737 6.33011L2.5999 6.29887L2.60047 6.26754C2.63133 4.57116 3.9273 3.16122 5.61103 3.00826L5.61202 3.00817L27.365 1.0102C29.3066 0.859552 31 2.40364 31 4.37068L31 27.6341Z" stroke="#3F3C3D" stroke-width="2"/>
<path d="M10 22L15.0435 18.32C15.764 17.84 16.0842 17.04 16.0842 16.16C16.0842 15.28 15.764 14.48 15.0435 14L10.0801 10M22.0885 22L17.045 18.32C16.3245 17.84 16.0043 17.04 16.0043 16.16C16.0043 15.28 16.3245 14.48 17.045 14L22.0084 10" stroke="#573BC7" stroke-width="4" stroke-miterlimit="10" stroke-linecap="round"/>
</svg>
