<svg width="250" height="16" viewBox="0 0 250 16" fill="none" xmlns="http://www.w3.org/2000/svg">
<g clip-path="url(#clip0_113_294)">
<circle cx="8" cy="8" r="6" fill="#573BC7"/>
<circle cx="34" cy="8" r="6" fill="#3F3C3D"/>
<path d="M66.1756 12.5877V3.41612C66.1756 1.63431 64.0213 0.741974 62.7614 2.0019L53.5898 11.1735C52.3299 12.4334 53.2222 14.5877 55.004 14.5877H64.1756C65.2802 14.5877 66.1756 13.6923 66.1756 12.5877Z" fill="#573BC7"/>
<path d="M92.1756 12.5877V3.41612C92.1756 1.63431 90.0213 0.741974 88.7614 2.0019L79.5898 11.1735C78.3299 12.4334 79.2222 14.5877 81.004 14.5877H90.1756C91.2802 14.5877 92.1756 13.6923 92.1756 12.5877Z" fill="#3F3C3D"/>
<rect x="106" y="2" width="12" height="12" fill="#573BC7"/>
<rect x="132" y="2" width="12" height="12" fill="#3F3C3D"/>
<path d="M158 12.8046V4.00313C158 2.44216 159.708 1.48288 161.041 2.29554L168.117 6.60999C169.382 7.38148 169.398 9.21297 168.147 10.0066L161.071 14.4936C159.739 15.338 158 14.3814 158 12.8046Z" fill="#573BC7"/>
<path d="M184 12.8046V4.00313C184 2.44216 185.708 1.48288 187.041 2.29554L194.117 6.60999C195.382 7.38148 195.398 9.21297 194.147 10.0066L187.071 14.4936C185.739 15.338 184 14.3814 184 12.8046Z" fill="#3F3C3D"/>
<path d="M211 14.5877L220.172 14.5877C221.953 14.5877 222.846 12.4334 221.586 11.1735L212.414 2.0019C211.154 0.741975 209 1.63431 209 3.41612L209 12.5877C209 13.6923 209.895 14.5877 211 14.5877Z" fill="#573BC7"/>
<path d="M237 14.5877L246.172 14.5877C247.953 14.5877 248.846 12.4334 247.586 11.1735L238.414 2.0019C237.154 0.741975 235 1.63431 235 3.41612L235 12.5877C235 13.6923 235.895 14.5877 237 14.5877Z" fill="#3F3C3D"/>
</g>
<defs>
<clipPath id="clip0_113_294">
<rect width="250" height="16" rx="5" fill="white"/>
</clipPath>
</defs>
</svg>
