<svg width="64" height="34" viewBox="0 0 64 34" fill="none" xmlns="http://www.w3.org/2000/svg">
<path d="M5.21385 19.6246C4.6313 19.6511 4.04875 19.6511 3.4662 19.6378C3.22789 19.6246 3.01605 19.3458 3.01605 19.1202C3.04253 15.5766 3.01605 12.033 3.02929 8.48945C2.39378 8.46291 1.77152 8.46291 1.13601 8.46291C0.884452 8.46291 0.752054 8.31692 0.579937 8.15766C0.579937 7.78604 0.553458 7.41443 0.619657 7.04282C0.791774 6.63139 2.57914 6.52521 3.02929 6.45885C2.81746 4.00356 2.92337 0.592686 5.98176 0.101627C7.1601 -0.0841792 8.3914 -0.0310921 9.51677 0.393608C9.88749 0.725405 9.79481 1.32264 9.78157 1.78715C9.76833 1.9995 9.63593 2.09241 9.47706 2.21185C9.41086 2.22513 9.34466 2.22513 9.27846 2.22513C8.29872 2.05259 6.86882 1.86679 6.04796 2.57019C5.38597 3.14089 5.57133 5.54309 5.58457 6.41904C6.74966 6.41904 7.91476 6.41904 9.07986 6.41904C9.31818 6.41904 9.46381 6.56503 9.62269 6.71102C9.62269 7.14899 9.63593 7.57369 9.62269 8.01166C9.62269 8.25056 9.30494 8.46291 9.07986 8.44964C7.91476 8.43636 6.74967 8.44964 5.57133 8.44964C5.57133 11.9932 5.55809 15.5501 5.58457 19.0937C5.58457 19.2662 5.43893 19.4786 5.31977 19.598L5.21385 19.6246Z" fill="#FC4C02"/>
<path d="M13.9389 19.6378C13.3563 19.6378 12.7605 19.6909 12.1912 19.6246C11.847 19.3724 11.847 19.5051 11.8337 19.1202C11.7543 15.0988 11.8337 11.0775 11.8337 7.05609C11.8205 6.88356 11.8735 6.69775 11.9926 6.5783C12.2442 6.35268 13.5417 6.43231 13.9389 6.44558C14.2831 6.45885 14.4023 6.61812 14.4023 6.85701C14.5082 10.9315 14.4023 15.0325 14.4155 19.1202C14.4155 19.3458 14.2831 19.4786 14.1375 19.6378H13.9389Z" fill="#FC4C02"/>
<path d="M30.2502 33.9847C23.9084 33.8255 17.7916 31.8347 12.403 28.5698C10.523 27.4417 8.7621 26.1012 7.17333 24.575C7.09389 24.4821 7.04094 24.3759 7.00122 24.2697C7.04094 24.0574 7.31897 23.8052 7.54405 23.8583C7.61025 23.8716 7.67644 23.8848 7.74264 23.9246C12.7076 26.8975 18.3609 28.8087 24.0408 29.7775C28.913 30.6004 33.8912 30.68 38.7899 29.9899C43.0001 29.4059 47.078 28.1849 51.0234 26.5923C51.3809 26.4728 51.7648 26.6056 51.9767 26.9108C52.1753 27.2293 52.0429 27.5611 51.7913 27.7868C51.5398 28.0124 50.6527 28.6362 50.4276 28.7689C48.7991 29.7377 47.1574 30.68 45.3833 31.3569C41.835 32.7239 38.1146 33.6397 34.3148 33.9184C32.9776 34.0113 31.6139 34.0113 30.2502 33.9847Z" fill="#FC4C02"/>
<path d="M12.3898 3.95047C11.7146 3.61867 11.4498 2.92853 11.5425 2.18531C11.5954 1.77388 11.8867 1.44208 12.1912 1.20319C12.5752 0.911208 13.3033 0.911208 13.7403 1.04393C14.6538 1.32264 14.9318 2.34457 14.6406 3.15416C14.3096 4.08319 13.1842 4.29554 12.3898 3.95047Z" fill="#FC4C02"/>
<path d="M56.4517 19.6246C56.1604 19.6113 55.9618 19.3591 55.8692 19.1202C54.2804 15.0988 52.6651 11.0775 51.0764 7.05609C51.0234 6.88355 51.0234 6.71102 51.0631 6.53848C51.1691 6.4854 51.2882 6.45885 51.3941 6.43231C51.9767 6.40577 52.5592 6.43231 53.1418 6.44558C53.4728 6.45885 53.6052 6.60484 53.6978 6.85701C55.0218 10.321 56.1869 13.8646 57.3785 17.3816C58.5436 13.8513 59.8146 10.3608 61.0459 6.85701C61.1518 6.60484 61.4034 6.43231 61.6814 6.44558C62.0654 6.44558 62.8995 6.37922 63.2305 6.43231L63.5747 6.4854C63.5218 7.10917 63.6144 6.97646 63.3629 7.62678C61.8668 11.3827 60.3177 15.1254 58.9011 18.9079C58.7819 19.2131 58.7157 19.4786 58.3847 19.5847C57.7889 19.744 57.074 19.6644 56.4517 19.6246Z" fill="#FC4C02"/>
<path d="M45.3833 19.6511C44.6419 19.452 44.0196 18.9875 43.6224 18.3372C43.2914 17.74 43.1193 17.0764 43.1193 16.3862C43.0928 13.8646 43.106 11.3296 43.1193 8.79471C43.1193 8.70181 43.106 8.59563 43.106 8.50273C42.4441 8.46291 41.7821 8.46291 41.1201 8.44964C40.8553 8.44964 40.7758 8.19747 40.7494 8.02494C40.7361 7.70641 40.7494 7.37462 40.7758 7.05609C40.842 6.9101 40.9744 6.80393 41.1201 6.76411C41.8085 6.64466 42.5103 6.56503 43.1987 6.47213C43.3179 5.37056 43.4238 4.269 43.543 3.16743C43.6224 2.43748 45.2509 2.76928 45.701 2.82236V6.44558C46.8264 6.43231 47.9518 6.41904 49.0772 6.43231C49.2625 6.43231 49.4611 6.59158 49.5935 6.71102C49.5935 7.14899 49.6068 7.58697 49.5935 8.02494C49.5803 8.2771 49.3155 8.47618 49.0772 8.46291C47.9518 8.44964 46.8264 8.46291 45.7143 8.50273C45.6878 11.2367 45.5951 14.0504 45.7937 16.7711C45.8334 17.2754 46.4954 17.6338 46.9456 17.6869C47.7797 17.7798 48.6005 17.6603 49.4214 17.4878C49.5009 17.5674 49.5803 17.647 49.673 17.74C49.6862 17.8063 49.6994 17.8727 49.6994 17.9523C49.7127 18.3372 49.6994 18.7353 49.6597 19.1202C49.2096 20.0094 46.1512 19.8502 45.3833 19.6511Z" fill="#FC4C02"/>
<path d="M31.0181 19.9431C28.7541 19.7573 26.8344 18.1912 26.1989 16.0013C25.378 13.2275 25.656 9.76355 27.695 7.61351C29.5883 5.636 33.6131 5.46346 35.6388 7.26844C37.1879 8.64871 37.3468 11.1704 36.9893 13.0815C36.9363 13.3602 36.8172 13.4266 36.6053 13.5859L28.251 13.5726C28.3702 14.8998 28.6085 16.2004 29.6545 17.1162C31.2829 18.5363 34.9371 17.8594 36.7907 17.1693C36.8304 17.74 36.8701 18.3505 36.7642 18.9079C35.9831 19.9298 32.2759 20.0758 31.0181 19.9431ZM34.5134 11.8871H34.765C34.8842 10.9447 34.818 9.77682 34.2089 8.99378C33.1895 7.67987 30.6474 7.64005 29.4956 8.82125C28.6615 9.67065 28.4232 10.7324 28.2908 11.8738C30.3694 11.8871 32.448 11.8738 34.5134 11.8871Z" fill="#FC4C02"/>
<path d="M19.9629 19.6378C19.3804 19.6644 18.7978 19.6644 18.2153 19.6378C18.0167 19.6246 17.8049 19.3458 17.8049 19.1202C17.8711 15.0325 17.8049 10.9447 17.8181 6.85701C17.8181 6.67121 17.9902 6.53849 18.1226 6.45886C18.6787 6.41904 19.2348 6.43231 19.7776 6.49867C20.2013 6.69775 20.188 7.97185 20.2145 8.39655C21.4193 7.06936 22.9816 6.16688 24.8219 6.33941C25.0073 6.36595 25.1794 6.43231 25.325 6.55176C25.3648 7.17554 25.3648 7.78604 25.3383 8.40982C25.2853 8.516 25.1397 8.68853 25.0205 8.68853C23.9614 8.67526 22.9419 8.62217 21.9224 8.98051C21.3531 9.19286 20.8368 9.49811 20.3866 9.89627C20.3866 12.9621 20.3866 16.0411 20.3999 19.107C20.3999 19.2264 20.3866 19.3326 20.3734 19.452C20.2145 19.5184 20.1086 19.6246 19.9629 19.6378Z" fill="#FC4C02"/>
<path d="M52.4136 31.702C53.1947 29.9103 53.87 28.0655 54.1083 26.1278C54.148 25.7562 54.1215 25.6234 53.9362 25.3447C53.3007 24.4024 48.6667 24.9731 47.5281 25.1058C47.3957 25.1191 47.1839 24.9466 47.1044 24.8537C47.356 24.5219 47.5149 24.283 47.9121 24.0839C49.1169 23.4601 50.4409 23.062 51.7913 22.916C53.0756 22.7833 55.2469 22.7833 56.2399 23.6194C56.8886 24.1503 55.8824 27.5611 55.6044 28.2645C55.0351 29.6846 54.201 31.0516 52.9432 31.9541C52.8373 32.0072 52.7181 32.0338 52.6122 32.0205L52.4136 31.702Z" fill="#FC4C02"/>
</svg>
