<svg width="136" height="40" viewBox="0 0 136 40" fill="none" xmlns="http://www.w3.org/2000/svg">
<g clip-path="url(#clip0_2022_13159)">
<mask id="mask0_2022_13159" style="mask-type:luminance" maskUnits="userSpaceOnUse" x="0" y="0" width="136" height="40">
<path d="M135.665 0H0.664062V40H135.665V0Z" fill="white"/>
</mask>
<g mask="url(#mask0_2022_13159)">
<path d="M130.662 40.0002H5.66659C2.91663 40.0002 0.666687 37.7503 0.666687 35.0003V5.00088C0.666687 2.25092 2.91663 0.000976562 5.66659 0.000976562H130.662C133.412 0.000976562 135.662 2.25092 135.662 5.00088V35.0003C135.662 37.7503 133.412 40.0002 130.662 40.0002Z" fill="#100F0D"/>
<path d="M130.662 0.000976562H5.66659C2.91663 0.000976562 0.666687 2.25092 0.666687 5.00088V35.0003C0.666687 37.7503 2.91663 40.0002 5.66659 40.0002H130.662C133.412 40.0002 135.662 37.7503 135.662 35.0003V5.00088C135.662 2.25092 133.412 0.000976562 130.662 0.000976562ZM130.662 0.800557C132.978 0.800557 134.862 2.68494 134.862 5.00088V35.0003C134.862 37.3163 132.978 39.2006 130.662 39.2006H5.66659C3.35065 39.2006 1.46709 37.3163 1.46709 35.0003V5.00088C1.46709 2.68494 3.35065 0.800557 5.66659 0.800557H130.662Z" fill="black"/>
<path d="M107.6 30.0007H109.466V17.4988H107.6V30.0007ZM124.407 22.0026L122.268 27.4224H122.204L119.984 22.0026H117.974L121.304 29.5777L119.405 33.7916H121.351L126.482 22.003L124.407 22.0026ZM113.824 28.5806C113.214 28.5806 112.361 28.2747 112.361 27.5189C112.361 26.554 113.423 26.1841 114.339 26.1841C115.159 26.1841 115.546 26.3607 116.044 26.6021C115.899 27.7603 114.902 28.5806 113.824 28.5806ZM114.05 21.7292C112.699 21.7292 111.3 22.3244 110.721 23.6432L112.377 24.3346C112.731 23.6432 113.39 23.4183 114.082 23.4183C115.047 23.4183 116.028 23.9968 116.044 25.0264V25.1549C115.706 24.9619 114.982 24.6725 114.098 24.6725C112.312 24.6725 110.495 25.6533 110.495 27.4869C110.495 29.1595 111.959 30.2372 113.599 30.2372C114.853 30.2372 115.546 29.6743 115.979 29.0146H116.044V29.9802H117.846V25.1869C117.846 22.9674 116.188 21.7292 114.05 21.7292ZM102.518 23.5244H99.864V19.2394H102.518C103.913 19.2394 104.705 20.3941 104.705 21.3819C104.705 22.3507 103.913 23.5244 102.518 23.5244ZM102.47 17.4991H97.9989V30.001H99.8641V25.2648H102.47C104.538 25.2648 106.571 23.7679 106.571 21.3824C106.571 18.9973 104.538 17.4991 102.47 17.4991ZM78.0896 28.5827C76.8005 28.5827 75.7216 27.503 75.7216 26.0214C75.7216 24.5226 76.8005 23.4277 78.0896 23.4277C79.3622 23.4277 80.361 24.5227 80.361 26.0214C80.361 27.503 79.3622 28.5827 78.0896 28.5827ZM80.2321 22.7024H80.1676C79.7489 22.2031 78.943 21.752 77.9286 21.752C75.8017 21.752 73.8525 23.6211 73.8525 26.0214C73.8525 28.4054 75.8017 30.2581 77.9286 30.2581C78.943 30.2581 79.7489 29.8069 80.1676 29.2917H80.2321V29.9034C80.2321 31.5311 79.3622 32.4006 77.9606 32.4006C76.8173 32.4006 76.1083 31.5791 75.8181 30.8865L74.1913 31.563C74.6581 32.6903 75.8982 34.0763 77.9607 34.0763C80.1521 34.0763 82.0047 32.7872 82.0047 29.6455V22.0097H80.2322L80.2321 22.7024ZM83.2938 30.0003H85.1617V17.4985H83.2938V30.0003ZM87.9168 25.8762C87.8687 24.2328 89.1902 23.3953 90.1402 23.3953C90.8816 23.3953 91.5092 23.766 91.7195 24.2972L87.9168 25.8762ZM93.7163 24.4582C93.362 23.5082 92.2827 21.752 90.0757 21.752C87.8843 21.752 86.0641 23.4758 86.0641 26.0051C86.0641 28.3894 87.8687 30.2581 90.2847 30.2581C92.2339 30.2581 93.3621 29.0664 93.8295 28.3734L92.3795 27.4066C91.8961 28.1156 91.2359 28.5828 90.2847 28.5828C89.3348 28.5828 88.6578 28.1477 88.2235 27.2938L93.9096 24.9419L93.7163 24.4582ZM48.4092 23.057V24.8613H52.7267C52.5978 25.8762 52.2595 26.6172 51.7438 27.1328C51.1154 27.7609 50.1326 28.4538 48.4092 28.4538C45.7509 28.4538 43.6729 26.3113 43.6729 23.6531C43.6729 20.995 45.7509 18.8521 48.4092 18.8521C49.843 18.8521 50.89 19.4161 51.6633 20.1411L52.9364 18.8681C51.8566 17.8372 50.4231 17.0479 48.4092 17.0479C44.7678 17.0479 41.7069 20.0122 41.7069 23.6531C41.7069 27.2937 44.7678 30.2581 48.4092 30.2581C50.3743 30.2581 51.8567 29.6136 53.0165 28.4055C54.2087 27.2133 54.5793 25.5379 54.5793 24.1844C54.5793 23.7661 54.5468 23.3794 54.4824 23.057H48.4092ZM59.4883 28.5827C58.1992 28.5827 57.0876 27.5194 57.0876 26.0051C57.0876 24.4746 58.1992 23.4278 59.4883 23.4278C60.7769 23.4278 61.8886 24.4746 61.8886 26.0051C61.8886 27.5194 60.7769 28.5827 59.4883 28.5827ZM59.4883 21.752C57.1356 21.752 55.2188 23.5402 55.2188 26.0051C55.2188 28.4538 57.1356 30.2581 59.4883 30.2581C61.8402 30.2581 63.7573 28.4538 63.7573 26.0051C63.7573 23.5402 61.8402 21.752 59.4883 21.752ZM68.8011 28.5827C67.5129 28.5827 66.4009 27.5194 66.4009 26.0051C66.4009 24.4746 67.513 23.4278 68.8011 23.4278C70.0902 23.4278 71.2015 24.4746 71.2015 26.0051C71.2015 27.5194 70.0902 28.5827 68.8011 28.5827ZM68.8011 21.752C66.4493 21.752 64.5325 23.5402 64.5325 26.0051C64.5325 28.4538 66.4493 30.2581 68.8011 30.2581C71.1539 30.2581 73.0707 28.4538 73.0707 26.0051C73.0707 23.5402 71.1539 21.752 68.8011 21.752Z" fill="white"/>
<path d="M21.3807 19.4241L10.7351 30.7236C10.7355 30.726 10.7363 30.7279 10.7367 30.7303C11.0632 31.9573 12.1839 32.8608 13.5139 32.8608C14.0456 32.8608 14.5448 32.717 14.9729 32.4647L15.0069 32.4448L26.9905 25.5297L21.3807 19.4241Z" fill="#EB3131"/>
<path d="M32.1515 17.5004L32.1413 17.4934L26.9676 14.4941L21.1388 19.6809L26.9879 25.5292L32.1342 22.5598C33.0365 22.0727 33.649 21.1215 33.649 20.0246C33.649 18.9356 33.0448 17.9891 32.1515 17.5004Z" fill="#F6B60B"/>
<path d="M10.7336 9.27734C10.6696 9.51334 10.636 9.76053 10.636 10.0172V29.9846C10.636 30.2408 10.6692 30.4889 10.734 30.724L21.7471 19.7132L10.7336 9.27734Z" fill="#5778C5"/>
<path d="M21.4595 20.0015L26.97 14.4927L14.9999 7.5526C14.5648 7.292 14.057 7.1416 13.5136 7.1416C12.1836 7.1416 11.0613 8.04671 10.7348 9.27514L10.7344 9.27821L21.4595 20.0015Z" fill="#3BAD49"/>
<path d="M48.0591 9.78187H45.142V10.5038H47.3279C47.2685 11.0928 47.0341 11.5553 46.6389 11.8913C46.2436 12.2273 45.7388 12.396 45.142 12.396C44.4873 12.396 43.9326 12.1679 43.478 11.7148C43.0326 11.2523 42.8061 10.6804 42.8061 9.99134C42.8061 9.30235 43.0326 8.73043 43.478 8.26798C43.9326 7.81488 44.4873 7.58829 45.142 7.58829C45.478 7.58829 45.7983 7.6461 46.0919 7.77269C46.3857 7.89919 46.6216 8.07578 46.806 8.30238L47.3607 7.74769C47.1091 7.4617 46.7904 7.243 46.395 7.08361C45.9997 6.92421 45.5873 6.84771 45.1419 6.84771C44.2685 6.84771 43.528 7.1508 42.9232 7.75551C42.3186 8.36171 42.0154 9.1086 42.0154 9.99135C42.0154 10.8741 42.3185 11.6226 42.9232 12.2273C43.5279 12.8319 44.2685 13.1351 45.1419 13.1351C46.0591 13.1351 46.7903 12.8414 47.3528 12.2444C47.8481 11.7477 48.1012 11.0758 48.1012 10.2352C48.1012 10.093 48.0841 9.94127 48.0591 9.78187ZM49.1892 6.98195V13.0007H52.7032V12.2616H49.9626V10.3523H52.4345V9.63041H49.9626V7.72262H52.7032V6.98193L49.1892 6.98195ZM57.6305 7.72264V6.98195H53.4946V7.72264H55.1759V13.0006H55.9493V7.72264H57.6305ZM61.3749 6.98195H60.6015V13.0007H61.3749V6.98195ZM66.4799 7.72264V6.98195H62.3441V7.72264H64.0252V13.0006H64.7986V7.72264H66.4799ZM74.2845 7.76484C73.6876 7.15076 72.9564 6.84766 72.0829 6.84766C71.2079 6.84766 70.4768 7.15075 69.8798 7.75546C69.2829 8.35235 68.9893 9.10075 68.9893 9.9913C68.9893 10.8819 69.283 11.6304 69.8798 12.2273C70.4767 12.8319 71.2079 13.1351 72.0829 13.1351C72.9485 13.1351 73.6875 12.8319 74.2845 12.2273C74.8813 11.6304 75.175 10.8819 75.175 9.9913C75.175 9.10855 74.8813 8.36162 74.2845 7.76484ZM70.4345 8.26793C70.8798 7.81483 71.4267 7.58824 72.0829 7.58824C72.7376 7.58824 73.2845 7.81484 73.722 8.26793C74.1672 8.71322 74.3859 9.29438 74.3859 9.99129C74.3859 10.6898 74.1672 11.2694 73.722 11.7147C73.2845 12.1678 72.7376 12.3959 72.0829 12.3959C71.4267 12.3959 70.8798 12.1678 70.4345 11.7147C69.9985 11.26 69.7799 10.6898 69.7799 9.99129C69.7799 9.2944 69.9985 8.72258 70.4345 8.26793ZM77.0125 9.25231L76.9798 8.0913H77.0125L80.0719 13.0006H80.8796V6.98189H80.1062V10.5037L80.139 11.6647H80.1062L77.1813 6.98189H76.2391V13.0006H77.0125V9.25231Z" fill="white" stroke="white" stroke-width="0.26666" stroke-miterlimit="10"/>
</g>
</g>
<defs>
<clipPath id="clip0_2022_13159">
<rect width="136" height="40" fill="white"/>
</clipPath>
</defs>
</svg>
