<svg width="53" height="16" viewBox="0 0 53 16" fill="none" xmlns="http://www.w3.org/2000/svg">
<path d="M8.27444 5.27862C8.27444 3.80371 7.08101 2.63931 5.60912 2.63931H4.29634V7.91793H5.60912C7.08101 7.91793 8.27444 6.71472 8.27444 5.27862ZM14.3211 15.7194H9.46787L5.60912 10.4796H4.29634V15.6806H0V0H6.12627C9.66678 0 12.5708 2.36762 12.5708 5.23981C12.5708 6.98641 11.4569 8.57776 9.78612 9.5481L14.3211 15.7194Z" fill="white"/>
<path d="M19.1338 6.21902C18.0199 6.21902 17.0254 7.73274 17.0254 9.59579C17.0254 11.4588 17.9801 12.9726 19.1338 12.9726C20.2874 12.9726 21.2421 11.4588 21.2421 9.59579C21.2421 7.73274 20.2874 6.21902 19.1338 6.21902ZM25.7374 9.59579C25.7374 13.1278 22.7936 16 19.1338 16C15.5137 16 12.5699 13.1666 12.5699 9.59579C12.5699 6.06377 15.5137 3.19158 19.1338 3.19158C22.7936 3.19158 25.7374 6.02495 25.7374 9.59579Z" fill="white"/>
<path d="M35.7872 3.44727L30.8544 8.26013V3.44727H26.558V15.7123H30.8544V10.7442L36.0259 15.7123H41.3963L34.8723 9.34691L40.2825 4.02947V11.3264C40.2825 13.7328 41.7544 15.984 45.5336 15.984C47.3237 15.984 48.9547 15.0137 49.7504 14.121L51.6598 15.7511H52.5748V3.44727H48.3182V11.404C47.8409 12.2191 47.1646 12.7237 46.1303 12.7237C45.096 12.7237 44.5788 12.1027 44.5788 10.162V3.44727H35.7872Z" fill="white"/>
</svg>
